<svg width="384" height="421" viewBox="0 0 384 421" fill="none" xmlns="http://www.w3.org/2000/svg">
<g filter="url(#filter0_i_336_16)">
<path d="M45 6.37854C45 3.40805 47.4081 1 50.3785 1H180H205.854C209.925 1 213.875 2.38553 217.054 4.92869L228.214 13.8571L242.679 25.1071L270 49.2143L315 91V181V355.621C315 358.592 312.592 361 309.621 361H50.3785C47.4081 361 45 358.592 45 355.621V6.37854Z" fill="url(#paint0_linear_336_16)"/>
</g>
<g filter="url(#filter1_di_336_16)">
<path d="M224.488 78.45L218.569 7.42725L228.212 13.8558L241.069 23.4987L266.783 45.9987L314.998 90.9987L231.123 85.0077C227.598 84.7558 224.781 81.9725 224.488 78.45Z" fill="url(#paint1_linear_336_16)"/>
</g>
<g filter="url(#filter2_dii_336_16)">
<circle cx="300" cy="337" r="60" fill="url(#paint2_linear_336_16)"/>
</g>
<g filter="url(#filter3_di_336_16)">
<path d="M305.25 330.269C305.25 331.087 305.913 331.75 306.731 331.75H326.519C327.337 331.75 328 332.413 328 333.231V340.769C328 341.587 327.337 342.25 326.519 342.25H306.731C305.913 342.25 305.25 342.913 305.25 343.731V363.519C305.25 364.337 304.587 365 303.769 365H296.231C295.413 365 294.75 364.337 294.75 363.519V343.731C294.75 342.913 294.087 342.25 293.269 342.25H273.481C272.663 342.25 272 341.587 272 340.769V333.231C272 332.413 272.663 331.75 273.481 331.75H293.269C294.087 331.75 294.75 331.087 294.75 330.269V310.481C294.75 309.663 295.413 309 296.231 309H303.769C304.587 309 305.25 309.663 305.25 310.481V330.269Z" fill="#DDDCE2"/>
</g>
<defs>
<filter id="filter0_i_336_16" x="45" y="1" width="270" height="360" filterUnits="userSpaceOnUse" color-interpolation-filters="sRGB">
<feFlood flood-opacity="0" result="BackgroundImageFix"/>
<feBlend mode="normal" in="SourceGraphic" in2="BackgroundImageFix" result="shape"/>
<feColorMatrix in="SourceAlpha" type="matrix" values="0 0 0 0 0 0 0 0 0 0 0 0 0 0 0 0 0 0 127 0" result="hardAlpha"/>
<feOffset/>
<feGaussianBlur stdDeviation="1.79285"/>
<feComposite in2="hardAlpha" operator="arithmetic" k2="-1" k3="1"/>
<feColorMatrix type="matrix" values="0 0 0 0 1 0 0 0 0 1 0 0 0 0 1 0 0 0 0.25 0"/>
<feBlend mode="normal" in2="shape" result="effect1_innerShadow_336_16"/>
</filter>
<filter id="filter1_di_336_16" x="206.019" y="0.255851" width="114.357" height="101.5" filterUnits="userSpaceOnUse" color-interpolation-filters="sRGB">
<feFlood flood-opacity="0" result="BackgroundImageFix"/>
<feColorMatrix in="SourceAlpha" type="matrix" values="0 0 0 0 0 0 0 0 0 0 0 0 0 0 0 0 0 0 127 0" result="hardAlpha"/>
<feOffset dx="-3.5857" dy="1.79285"/>
<feGaussianBlur stdDeviation="4.48212"/>
<feComposite in2="hardAlpha" operator="out"/>
<feColorMatrix type="matrix" values="0 0 0 0 0.298039 0 0 0 0 0.643137 0 0 0 0 0.898039 0 0 0 1 0"/>
<feBlend mode="normal" in2="BackgroundImageFix" result="effect1_dropShadow_336_16"/>
<feBlend mode="normal" in="SourceGraphic" in2="effect1_dropShadow_336_16" result="shape"/>
<feColorMatrix in="SourceAlpha" type="matrix" values="0 0 0 0 0 0 0 0 0 0 0 0 0 0 0 0 0 0 127 0" result="hardAlpha"/>
<feOffset dx="1.79285" dy="7.1714"/>
<feGaussianBlur stdDeviation="17.0321"/>
<feComposite in2="hardAlpha" operator="arithmetic" k2="-1" k3="1"/>
<feColorMatrix type="matrix" values="0 0 0 0 0 0 0 0 0 0 0 0 0 0 0 0 0 0 0.25 0"/>
<feBlend mode="normal" in2="shape" result="effect2_innerShadow_336_16"/>
</filter>
<filter id="filter2_dii_336_16" x="229.847" y="266.847" width="153.843" height="153.843" filterUnits="userSpaceOnUse" color-interpolation-filters="sRGB">
<feFlood flood-opacity="0" result="BackgroundImageFix"/>
<feColorMatrix in="SourceAlpha" type="matrix" values="0 0 0 0 0 0 0 0 0 0 0 0 0 0 0 0 0 0 127 0" result="hardAlpha"/>
<feOffset dx="6.76851" dy="6.76851"/>
<feGaussianBlur stdDeviation="8.46064"/>
<feComposite in2="hardAlpha" operator="out"/>
<feColorMatrix type="matrix" values="0 0 0 0 0 0 0 0 0 0 0 0 0 0 0 0 0 0 0.25 0"/>
<feBlend mode="normal" in2="BackgroundImageFix" result="effect1_dropShadow_336_16"/>
<feBlend mode="normal" in="SourceGraphic" in2="effect1_dropShadow_336_16" result="shape"/>
<feColorMatrix in="SourceAlpha" type="matrix" values="0 0 0 0 0 0 0 0 0 0 0 0 0 0 0 0 0 0 127 0" result="hardAlpha"/>
<feOffset dx="13.537" dy="16.9213"/>
<feGaussianBlur stdDeviation="5.07638"/>
<feComposite in2="hardAlpha" operator="arithmetic" k2="-1" k3="1"/>
<feColorMatrix type="matrix" values="0 0 0 0 0.784314 0 0 0 0 0.992157 0 0 0 0 0.709804 0 0 0 0.6 0"/>
<feBlend mode="normal" in2="shape" result="effect2_innerShadow_336_16"/>
<feColorMatrix in="SourceAlpha" type="matrix" values="0 0 0 0 0 0 0 0 0 0 0 0 0 0 0 0 0 0 127 0" result="hardAlpha"/>
<feOffset dx="-6.76851" dy="-6.76851"/>
<feGaussianBlur stdDeviation="11.8449"/>
<feComposite in2="hardAlpha" operator="arithmetic" k2="-1" k3="1"/>
<feColorMatrix type="matrix" values="0 0 0 0 0 0 0 0 0 0 0 0 0 0 0 0 0 0 0.48 0"/>
<feBlend mode="normal" in2="effect2_innerShadow_336_16" result="effect3_innerShadow_336_16"/>
</filter>
<filter id="filter3_di_336_16" x="267.558" y="306.039" width="67.845" height="67.8449" filterUnits="userSpaceOnUse" color-interpolation-filters="sRGB">
<feFlood flood-opacity="0" result="BackgroundImageFix"/>
<feColorMatrix in="SourceAlpha" type="matrix" values="0 0 0 0 0 0 0 0 0 0 0 0 0 0 0 0 0 0 127 0" result="hardAlpha"/>
<feOffset dx="1.48061" dy="2.96122"/>
<feGaussianBlur stdDeviation="2.96122"/>
<feComposite in2="hardAlpha" operator="out"/>
<feColorMatrix type="matrix" values="0 0 0 0 0 0 0 0 0 0 0 0 0 0 0 0 0 0 0.6 0"/>
<feBlend mode="normal" in2="BackgroundImageFix" result="effect1_dropShadow_336_16"/>
<feBlend mode="normal" in="SourceGraphic" in2="effect1_dropShadow_336_16" result="shape"/>
<feColorMatrix in="SourceAlpha" type="matrix" values="0 0 0 0 0 0 0 0 0 0 0 0 0 0 0 0 0 0 127 0" result="hardAlpha"/>
<feOffset dx="1.48061" dy="1.48061"/>
<feGaussianBlur stdDeviation="1.48061"/>
<feComposite in2="hardAlpha" operator="arithmetic" k2="-1" k3="1"/>
<feColorMatrix type="matrix" values="0 0 0 0 1 0 0 0 0 1 0 0 0 0 1 0 0 0 1 0"/>
<feBlend mode="normal" in2="shape" result="effect2_innerShadow_336_16"/>
</filter>
<linearGradient id="paint0_linear_336_16" x1="180" y1="1" x2="180" y2="361" gradientUnits="userSpaceOnUse">
<stop stop-color="#75EBF6"/>
<stop offset="1" stop-color="#4C9BE4"/>
</linearGradient>
<linearGradient id="paint1_linear_336_16" x1="263.569" y1="45.9987" x2="231.426" y2="74.9273" gradientUnits="userSpaceOnUse">
<stop stop-color="#89BDED"/>
<stop offset="0.487283" stop-color="#5593E3"/>
<stop offset="1" stop-color="#4181D8"/>
</linearGradient>
<linearGradient id="paint2_linear_336_16" x1="268" y1="287" x2="326" y2="393" gradientUnits="userSpaceOnUse">
<stop stop-color="#83E06C"/>
<stop offset="1" stop-color="#519F39"/>
</linearGradient>
</defs>
</svg>
