<svg width="472" height="373" viewBox="0 0 472 373" fill="none" xmlns="http://www.w3.org/2000/svg">
<g filter="url(#filter0_d_282_19)">
<path d="M56 90.1951L378.5 90.1951C399.211 90.1951 416 104.446 416 122.024L416 281.171C416 298.75 399.211 313 378.5 313L236 313L93.5 313C72.7893 313 56 298.75 56 281.171L56 90.1951Z" fill="#FBBC1A"/>
<path d="M56 137.939L56 268.439C56 286.018 72.7893 300.268 93.5 300.268L378.5 300.268C399.211 300.268 416 286.018 416 268.439L416 134.756C416 117.177 399.211 102.927 378.5 102.927L221 102.927L221 118.841C221 129.389 210.926 137.939 198.5 137.939L56 137.939Z" fill="url(#paint0_linear_282_19)"/>
<path d="M56 77.4634C56 63.4004 69.4315 52 86 52L191 52C207.569 52 221 63.4004 221 77.4634L221 90.1951L56 90.1951L56 77.4634Z" fill="#FBBC1A"/>
</g>
<defs>
<filter id="filter0_d_282_19" x="0" y="0" width="472" height="373" filterUnits="userSpaceOnUse" color-interpolation-filters="sRGB">
<feFlood flood-opacity="0" result="BackgroundImageFix"/>
<feColorMatrix in="SourceAlpha" type="matrix" values="0 0 0 0 0 0 0 0 0 0 0 0 0 0 0 0 0 0 127 0" result="hardAlpha"/>
<feOffset dy="4"/>
<feGaussianBlur stdDeviation="28"/>
<feComposite in2="hardAlpha" operator="out"/>
<feColorMatrix type="matrix" values="0 0 0 0 0 0 0 0 0 0 0 0 0 0 0 0 0 0 0.17 0"/>
<feBlend mode="normal" in2="BackgroundImageFix" result="effect1_dropShadow_282_19"/>
<feBlend mode="normal" in="SourceGraphic" in2="effect1_dropShadow_282_19" result="shape"/>
</filter>
<linearGradient id="paint0_linear_282_19" x1="56" y1="52" x2="487.898" y2="356.886" gradientUnits="userSpaceOnUse">
<stop stop-color="#FFE69C"/>
<stop offset="1" stop-color="#FFC937"/>
</linearGradient>
</defs>
</svg>
