<svg width="360" height="361" viewBox="0 0 360 361" fill="none" xmlns="http://www.w3.org/2000/svg">
<g filter="url(#filter0_i_282_13)">
<path d="M45 6.37854C45 3.40805 47.4081 1 50.3785 1H180H205.854C209.925 1 213.875 2.38553 217.054 4.92869L228.214 13.8571L242.679 25.1071L270 49.2143L315 91V181V355.621C315 358.592 312.592 361 309.621 361H50.3785C47.4081 361 45 358.592 45 355.621V6.37854Z" fill="url(#paint0_linear_282_13)"/>
</g>
<g filter="url(#filter1_di_282_13)">
<path d="M224.488 78.45L218.569 7.42725L228.212 13.8558L241.069 23.4987L266.783 45.9987L314.998 90.9987L231.123 85.0077C227.598 84.7558 224.781 81.9725 224.488 78.45Z" fill="url(#paint1_linear_282_13)"/>
</g>
<defs>
<filter id="filter0_i_282_13" x="45" y="1" width="270" height="360" filterUnits="userSpaceOnUse" color-interpolation-filters="sRGB">
<feFlood flood-opacity="0" result="BackgroundImageFix"/>
<feBlend mode="normal" in="SourceGraphic" in2="BackgroundImageFix" result="shape"/>
<feColorMatrix in="SourceAlpha" type="matrix" values="0 0 0 0 0 0 0 0 0 0 0 0 0 0 0 0 0 0 127 0" result="hardAlpha"/>
<feOffset/>
<feGaussianBlur stdDeviation="1.79285"/>
<feComposite in2="hardAlpha" operator="arithmetic" k2="-1" k3="1"/>
<feColorMatrix type="matrix" values="0 0 0 0 1 0 0 0 0 1 0 0 0 0 1 0 0 0 0.25 0"/>
<feBlend mode="normal" in2="shape" result="effect1_innerShadow_282_13"/>
</filter>
<filter id="filter1_di_282_13" x="206.019" y="0.255851" width="114.357" height="101.5" filterUnits="userSpaceOnUse" color-interpolation-filters="sRGB">
<feFlood flood-opacity="0" result="BackgroundImageFix"/>
<feColorMatrix in="SourceAlpha" type="matrix" values="0 0 0 0 0 0 0 0 0 0 0 0 0 0 0 0 0 0 127 0" result="hardAlpha"/>
<feOffset dx="-3.5857" dy="1.79285"/>
<feGaussianBlur stdDeviation="4.48212"/>
<feComposite in2="hardAlpha" operator="out"/>
<feColorMatrix type="matrix" values="0 0 0 0 0.298039 0 0 0 0 0.643137 0 0 0 0 0.898039 0 0 0 1 0"/>
<feBlend mode="normal" in2="BackgroundImageFix" result="effect1_dropShadow_282_13"/>
<feBlend mode="normal" in="SourceGraphic" in2="effect1_dropShadow_282_13" result="shape"/>
<feColorMatrix in="SourceAlpha" type="matrix" values="0 0 0 0 0 0 0 0 0 0 0 0 0 0 0 0 0 0 127 0" result="hardAlpha"/>
<feOffset dx="1.79285" dy="7.1714"/>
<feGaussianBlur stdDeviation="17.0321"/>
<feComposite in2="hardAlpha" operator="arithmetic" k2="-1" k3="1"/>
<feColorMatrix type="matrix" values="0 0 0 0 0 0 0 0 0 0 0 0 0 0 0 0 0 0 0.25 0"/>
<feBlend mode="normal" in2="shape" result="effect2_innerShadow_282_13"/>
</filter>
<linearGradient id="paint0_linear_282_13" x1="180" y1="1" x2="180" y2="361" gradientUnits="userSpaceOnUse">
<stop stop-color="#75EBF6"/>
<stop offset="1" stop-color="#4C9BE4"/>
</linearGradient>
<linearGradient id="paint1_linear_282_13" x1="263.569" y1="45.9987" x2="231.426" y2="74.9273" gradientUnits="userSpaceOnUse">
<stop stop-color="#89BDED"/>
<stop offset="0.487283" stop-color="#5593E3"/>
<stop offset="1" stop-color="#4181D8"/>
</linearGradient>
</defs>
</svg>
